<svg width="650" height="376" viewBox="0 0 650 376" fill="none" xmlns="http://www.w3.org/2000/svg">
<path fill-rule="evenodd" clip-rule="evenodd" d="M498.019 167.724L510.267 167.979L510.693 165.002L500.571 164.577V132.509H519.777V164.577L513.482 165.342L513.908 167.979L523.434 167.724L532.961 167.979L533.386 165.342L526.582 164.577V107.161L504.909 107.501L498.359 115.412C495.382 118.984 493.766 122.302 493.766 127.576V128.341H488.492L486.11 131.148V132.509H493.766V164.577L487.471 165.342L487.897 167.979L498.019 167.724ZM519.777 128.766H500.57V126.044C500.57 120.09 501.336 117.709 502.527 116.177L504.228 113.796H515.286L519.777 111.69V128.766Z" fill="#F473F6"/>
<path fill-rule="evenodd" clip-rule="evenodd" d="M261.941 167.979L246.8 167.724L234.977 167.979L234.552 165.342L242.547 164.236V112.01L234.552 110.904L234.977 108.267L246.715 108.522L262.962 108.267C280.059 108.182 290.691 118.219 290.691 136.422C290.691 155.22 280.824 165.682 261.941 167.979ZM250.118 112.095V163.471L261.346 164.321C273.594 164.151 282.185 154.029 282.185 137.442C282.185 123.322 274.615 111.839 258.879 111.669L250.118 112.095Z" fill="#F473F6"/>
<path d="M316.075 167.979L304.507 167.724L295.32 167.979L294.895 165.342L301.19 164.577V133.019L294.895 133.615L294.47 130.978L304.337 128.256L307.399 128.001L307.314 138.633L317.181 127.32H323.645V134.806H318.202C316.16 135.061 312.332 138.038 309.866 140.93L307.994 143.227V164.236L316.5 165.002L316.075 167.979Z" fill="#F473F6"/>
<path fill-rule="evenodd" clip-rule="evenodd" d="M347.434 161.685L349.986 168.149L359.768 166.278L359.513 163.641H355.175C354.324 162.365 353.644 161.004 353.644 157.261V140.59C353.644 129.447 351.347 126.895 340.97 126.895L326.339 133.53V139.484H332.549L334.08 133.36C336.121 132.594 339.184 131.743 341.65 131.743C346.754 131.743 346.924 135.316 346.924 140.334V144.417L327.7 150.882C325.914 153.604 324.979 155.56 324.979 158.452C324.979 165.172 329.997 169.17 337.142 169.17L347.434 161.685ZM336.972 163.641C334.335 163.641 331.783 162.195 331.783 157.772C331.783 155.986 332.209 154.54 333.399 153.264L346.924 147.65V158.452L342.841 161.259L342.695 161.361C341.548 162.158 339.416 163.641 336.972 163.641Z" fill="#F473F6"/>
<path fill-rule="evenodd" clip-rule="evenodd" d="M398.924 171.296C398.924 177.846 390.503 185.076 377.829 188.734C365.155 188.734 359.627 184.651 359.627 176.655V175.379L368.643 167.894C362.772 165.545 362.773 163.114 362.774 159.459L362.774 159.133L371.11 153.179C365.836 151.392 362.263 147.48 362.263 142.291C362.263 135.316 366.686 129.872 378.255 126.895C382.933 126.895 387.866 128.511 390.503 131.488L395.352 126.895H400.2V133.104H395.692L392.46 134.635C393.055 135.911 393.395 137.357 393.395 138.888C393.395 145.693 388.887 151.222 377.404 154.114C376.383 154.114 375.448 154.114 374.597 154.029L369.408 159.898C369.408 161.599 370.514 162.875 372.385 162.875H387.951C395.777 162.875 398.924 166.278 398.924 171.296ZM369.323 139.654C369.323 143.056 371.025 150.286 378.68 150.286C383.443 150.286 386.335 147.309 386.335 142.376C386.335 138.463 384.719 130.553 377.064 130.553C372.215 130.553 369.323 134.04 369.323 139.654ZM366.261 176.995C366.261 181.163 371.365 184.14 378.085 184.14C384.974 184.14 391.694 179.462 391.694 173.083C391.694 169.85 389.227 168.745 382.933 168.745H371.45C366.516 174.273 366.261 175.805 366.261 176.995Z" fill="#F473F6"/>
<path fill-rule="evenodd" clip-rule="evenodd" d="M418.907 169.17C432.262 167.213 439.237 159.473 439.237 147.224C439.237 135.911 431.751 126.895 420.353 126.895C406.914 129.021 399.939 136.592 399.939 148.926C399.939 160.239 407.424 169.17 418.907 169.17ZM420.864 165.257C412.358 165.257 407.084 156.496 407.084 147.82C407.084 138.633 410.742 130.808 418.397 130.808C426.648 130.808 432.177 138.378 432.177 148.415C432.177 157.432 428.434 165.257 420.864 165.257Z" fill="#F473F6"/>
<path d="M457.196 167.979L449.455 167.724L439.928 167.979L439.503 165.342L445.798 164.577V133.019L439.588 133.615L439.163 130.978L448.69 128.256L451.922 128.001L452.432 135.231L464.936 126.895C476.079 126.895 477.44 130.808 477.44 141.015V164.577L484.33 165.342L483.904 167.979L474.378 167.724L466.552 167.979L466.127 165.342L470.635 164.577V139.909C470.635 135.146 468.594 133.019 464.681 133.019C461.534 133.019 458.472 135.061 455.409 137.102L452.602 138.888V164.577L457.621 165.342L457.196 167.979Z" fill="#F473F6"/>
<path d="M265.853 250.988C272.318 250.053 281.675 246.395 286.098 244.184L288.479 232.956H284.141L279.378 242.142C277.337 243.758 273.509 246.65 268.575 246.65C252.669 246.65 243.908 231.935 243.908 218.41C243.908 201.398 252.754 192.382 266.024 192.382C272.998 192.382 278.187 195.784 280.484 198.081L283.206 205.822H287.544V195.359C284.056 192.637 276.061 188.384 267.044 188.384C248.756 190.681 235.572 200.548 235.572 220.282C235.572 240.186 250.287 250.988 265.853 250.988Z" fill="#F473F6"/>
<path fill-rule="evenodd" clip-rule="evenodd" d="M315.964 249.712L313.413 243.248L303.12 250.733C295.975 250.733 290.957 246.735 290.957 240.016C290.957 237.124 291.892 235.167 293.679 232.445L312.902 225.981V221.898C312.902 216.879 312.732 213.307 307.629 213.307C305.162 213.307 302.1 214.157 300.058 214.923L298.527 221.047H292.318V215.093L306.948 208.458C317.325 208.458 319.622 211.01 319.622 222.153V238.825C319.622 242.567 320.302 243.928 321.153 245.204H325.491L325.746 247.841L315.964 249.712ZM297.762 239.335C297.762 243.758 300.313 245.204 302.95 245.204C305.394 245.204 307.526 243.722 308.674 242.924L308.819 242.823L312.902 240.016V229.213L299.378 234.827C298.187 236.103 297.762 237.549 297.762 239.335Z" fill="#F473F6"/>
<path fill-rule="evenodd" clip-rule="evenodd" d="M334.536 268.851L346.444 269.106L346.87 266.469L337.598 265.619V248.692C339.64 249.968 342.277 250.733 344.828 250.733C356.737 249.117 365.753 242.993 365.753 228.533C365.753 216.029 359.969 208.458 348.146 208.458L337.428 216.624L337.003 209.564L333.771 209.819L324.074 212.541L324.499 215.093L330.793 214.498V265.619L324.499 266.469L324.924 269.106L334.536 268.851ZM347.72 246.735C343.552 246.735 339.64 244.779 337.598 241.632V220.452L340.405 218.325C343.893 215.689 346.87 214.072 349.336 214.072C354.865 214.072 358.608 220.962 358.608 230.829C358.608 240.526 354.27 246.735 347.72 246.735Z" fill="#F473F6"/>
<path d="M382.337 199.359L381.487 203.187L376.043 203.697L373.916 203.187L373.406 198.764L374.171 194.936L379.7 194.511L381.912 194.936L382.337 199.359Z" fill="#F473F6"/>
<path d="M388.036 249.542L378.509 249.287L368.983 249.542L368.557 246.905L374.852 246.14V214.668L368.557 215.178L368.132 212.541L377.744 209.819L381.657 209.479V246.14L388.461 246.905L388.036 249.542Z" fill="#F473F6"/>
<path d="M413.304 245.374L412.028 242.823C408.881 244.354 407.265 244.779 405.309 244.779C403.182 244.779 400.715 242.993 400.715 239.76V214.157H413.9V210.585H400.63V199.187H399.014L394.251 204.461V209.904H388.382L385.49 212.711V214.157H393.911V239.931C393.911 247.076 397.313 250.733 403.948 250.733L413.304 245.374Z" fill="#F473F6"/>
<path fill-rule="evenodd" clip-rule="evenodd" d="M440.162 249.712L437.61 243.248L427.318 250.733C420.173 250.733 415.154 246.735 415.154 240.016C415.154 237.124 416.09 235.167 417.876 232.445L437.1 225.981V221.898C437.1 216.879 436.93 213.307 431.826 213.307C429.359 213.307 426.297 214.157 424.256 214.923L422.725 221.047H416.515V215.093L431.146 208.458C441.523 208.458 443.82 211.01 443.82 222.153V238.825C443.82 242.567 444.5 243.928 445.351 245.204H449.689L449.944 247.841L440.162 249.712ZM421.959 239.335C421.959 243.758 424.511 245.204 427.148 245.204C429.592 245.204 431.724 243.722 432.871 242.924L433.017 242.823L437.1 240.016V229.213L423.575 234.827C422.384 236.103 421.959 237.549 421.959 239.335Z" fill="#F473F6"/>
<path d="M462.391 249.287L471.918 249.542L472.343 246.905L465.538 246.14V188.725L461.626 189.065L452.099 191.787L452.524 194.424L458.734 194.253V246.14L452.439 246.905L452.864 249.542L462.391 249.287Z" fill="#F473F6"/>
<path d="M546.47 187.883L555.911 166.703L569.521 131.573L575.135 130.723L574.71 128.086L567.65 128.341L560.59 128.158V131.148L563.822 131.573L553.275 162.875L552.679 157.347L543.408 131.573L549.362 130.723L548.936 128.086L540.26 128.341L530.989 128.086L530.563 130.723L536.177 131.573L550.127 167.639L552.084 167.043L543.748 180.313H537.283V187.883H546.47Z" fill="#F473F6"/>
<path d="M145.575 214.265V111.634M145.575 111.634H143.085M145.575 111.634H148.066M143.085 111.634H79.3145L89.7766 138.288L143.085 111.634ZM148.066 111.634H211.836L201.374 138.288L148.066 111.634ZM127.55 176.152H110.078V246.897H181.072V176.152H163.601" stroke="#F473F6" stroke-width="7"/>
</svg>
