<svg width="650" height="376" viewBox="0 0 650 376" fill="none" xmlns="http://www.w3.org/2000/svg">
<path d="M278.365 94.9958C278.355 95.7111 277.993 96.064 277.278 96.0546C276.965 96.0505 276.698 95.9575 276.477 95.7758C276.256 95.5493 276.148 95.2797 276.152 94.9668L276.364 78.807C276.369 78.4494 276.484 78.1826 276.71 78.0067C276.937 77.7862 277.206 77.6779 277.519 77.682C278.234 77.6914 278.587 78.0761 278.577 78.836L278.365 94.9958ZM282.558 66.8167L282.695 56.3564C282.699 56.0435 282.814 55.7768 283.041 55.5562C283.267 55.3356 283.537 55.2274 283.85 55.2315L296.255 55.3945C296.612 55.3992 296.879 55.5145 297.055 55.7404C297.276 55.9668 297.384 56.2365 297.38 56.5494C297.37 57.2646 296.986 57.6172 296.226 57.6073L284.894 57.4584L284.77 66.8458C284.761 67.561 284.399 67.9139 283.683 67.9045C283.371 67.9004 283.103 67.8075 282.882 67.6258C282.662 67.3993 282.554 67.1296 282.558 66.8167ZM272.585 55.0835C272.898 55.0876 273.142 55.2026 273.318 55.4285C273.539 55.6549 273.647 55.9246 273.643 56.2375C273.634 56.9527 273.271 57.3057 272.556 57.2963L264.375 57.1888C263.616 57.1788 263.24 56.8162 263.25 56.1009C263.254 55.788 263.347 55.521 263.528 55.2998C263.755 55.0793 264.047 54.9713 264.405 54.976L272.585 55.0835ZM278.884 50.4047L278.605 71.5934L283.634 71.6595C283.947 71.6636 284.191 71.7786 284.367 72.0045C284.588 72.2309 284.696 72.5006 284.692 72.8135L284.467 89.912C284.457 90.672 284.095 91.0472 283.379 91.0378C283.067 91.0337 282.8 90.9408 282.578 90.7591C282.358 90.5326 282.25 90.2406 282.255 89.883L282.465 73.8573L277.503 73.7921C277.19 73.788 276.923 73.6951 276.702 73.5133C276.482 73.2869 276.373 73.0172 276.377 72.7043L276.657 51.4485L264.453 51.2881C263.693 51.2781 263.318 50.9155 263.327 50.2003C263.337 49.4403 263.722 49.0654 264.482 49.0754L277.826 49.2507C278.541 49.2601 278.894 49.6447 278.884 50.4047ZM283.927 49.3309L292.644 49.4454C293.36 49.4548 293.712 49.8395 293.702 50.5994C293.693 51.3146 293.331 51.6675 292.615 51.6581L283.898 51.5436C283.585 51.5395 283.318 51.4466 283.097 51.2648C282.877 51.0384 282.768 50.7687 282.773 50.4558C282.777 50.0982 282.893 49.8314 283.118 49.6556C283.345 49.435 283.615 49.3267 283.927 49.3309ZM296.735 49.4321C297.092 49.5262 297.335 49.7306 297.465 50.0452C297.595 50.3599 297.613 50.6731 297.52 50.9849L297.453 50.984C297.311 51.5634 296.927 51.8489 296.301 51.8407C295.812 51.6554 295.48 51.4275 295.304 51.157C295.13 50.8417 295.089 50.5282 295.183 50.2165L295.251 50.1503C295.392 49.6156 295.775 49.3524 296.401 49.3606C296.58 49.363 296.691 49.3868 296.735 49.4321ZM315.664 81.6035C315.673 80.8883 316.058 80.5357 316.818 80.5457C317.533 80.5551 317.886 80.9174 317.876 81.6326L317.697 95.2444C317.688 95.9596 317.326 96.3125 316.61 96.3031C315.851 96.2931 315.475 95.9305 315.485 95.2153L315.664 81.6035ZM336.517 66.5868C335.802 66.5774 335.449 66.2151 335.458 65.4999L335.645 51.2846C335.649 50.9717 335.742 50.7047 335.924 50.4835C336.15 50.2629 336.42 50.1547 336.733 50.1588C337.09 50.1635 337.357 50.2788 337.533 50.5046C337.753 50.7311 337.862 51.0008 337.858 51.3137L337.671 65.5289C337.661 66.2442 337.277 66.5968 336.517 66.5868ZM342.093 96.4368C341.78 96.4326 341.514 96.3174 341.293 96.0909C341.117 95.8651 341.031 95.5957 341.035 95.2828L341.552 55.9897C341.561 55.2744 341.923 54.9215 342.639 54.9309C342.952 54.935 343.218 55.0503 343.439 55.2768C343.66 55.4585 343.769 55.7058 343.764 56.0188L343.248 95.3118C343.244 95.6247 343.129 95.8915 342.902 96.1121C342.676 96.3326 342.406 96.4409 342.093 96.4368ZM316.935 71.6276C316.577 71.6229 316.288 71.5073 316.067 71.2809C315.892 71.055 315.806 70.7856 315.81 70.4727L316.066 50.9603C316.076 50.2451 316.46 49.8924 317.22 49.9024C317.935 49.9118 318.288 50.2741 318.279 50.9894L318.037 69.429L336.476 69.6712C337.236 69.6812 337.611 70.0438 337.602 70.7591L337.331 91.4114C337.327 91.7243 337.211 91.9911 336.985 92.2116C336.803 92.4328 336.533 92.541 336.176 92.5363C335.863 92.5322 335.596 92.4169 335.376 92.1905C335.2 91.9646 335.114 91.6952 335.118 91.3823L335.374 71.8699L316.935 71.6276ZM310.968 71.4821C310.655 71.478 310.388 71.3851 310.167 71.2034C309.946 70.9769 309.838 70.7072 309.842 70.3943L310.098 50.8819C310.103 50.569 310.218 50.3246 310.443 50.1487C310.67 49.9281 310.94 49.8199 311.252 49.824C311.968 49.8334 312.321 50.1957 312.311 50.911L312.055 70.4234C312.045 71.1386 311.683 71.4915 310.968 71.4821ZM310.645 96.0236C310.333 96.0194 310.066 95.9042 309.845 95.6777C309.625 95.4513 309.516 95.1816 309.52 94.8687L309.762 76.4961C309.766 76.1832 309.881 75.9165 310.108 75.6959C310.334 75.4753 310.604 75.3671 310.917 75.3712L331.1 75.6364C331.413 75.6405 331.657 75.7555 331.833 75.9814C332.053 76.2078 332.162 76.4775 332.158 76.7904C332.148 77.5056 331.786 77.8586 331.071 77.8492L311.961 77.5981L311.733 94.8977C311.729 95.2107 311.614 95.4774 311.387 95.698C311.206 95.9191 310.958 96.0277 310.645 96.0236ZM336.627 93.9506C336.938 94.0888 337.158 94.3153 337.288 94.6299C337.419 94.8999 337.437 95.1908 337.344 95.5025L337.343 95.5696C337.113 96.1031 336.729 96.3663 336.193 96.3592C335.703 96.2187 335.37 95.9907 335.196 95.6755C335.021 95.3602 334.98 95.0467 335.074 94.735C335.216 94.1556 335.599 93.87 336.225 93.8783C336.315 93.8794 336.381 93.9027 336.425 93.948C336.47 93.9485 336.537 93.9494 336.627 93.9506ZM358.988 97.2623C358.676 97.2582 358.409 97.1429 358.188 96.9165C357.968 96.69 357.859 96.4204 357.864 96.1074L358.119 76.6621C358.123 76.3492 358.238 76.0824 358.465 75.8618C358.691 75.6413 358.961 75.533 359.274 75.5371L377.579 75.7777C377.892 75.7818 378.159 75.8971 378.38 76.1235C378.6 76.35 378.708 76.6196 378.704 76.9325C378.7 77.2455 378.585 77.5122 378.358 77.7328C378.133 77.9086 377.863 77.9945 377.55 77.9904L360.318 77.764L360.09 95.0637L383.358 95.3694C384.073 95.3788 384.426 95.7411 384.417 96.4563C384.412 96.7692 384.297 97.036 384.071 97.2566C383.889 97.4777 383.642 97.5863 383.329 97.5821L358.988 97.2623ZM359.322 71.9163C359.009 71.9122 358.742 71.7969 358.521 71.5704C358.301 71.344 358.192 71.0743 358.197 70.7614L358.454 51.1819C358.458 50.869 358.573 50.6023 358.8 50.3817C359.026 50.1611 359.296 50.0529 359.609 50.057C359.922 50.0611 360.166 50.1761 360.342 50.402C360.562 50.6284 360.671 50.8981 360.667 51.211L360.423 69.7176L377.656 69.9441C377.969 69.9482 378.236 70.0634 378.456 70.2899C378.677 70.4716 378.786 70.719 378.782 71.0319C378.778 71.3448 378.662 71.6115 378.436 71.8321C378.21 72.0527 377.94 72.1609 377.627 72.1568L359.322 71.9163ZM383.736 56.4098C384.048 56.4139 384.315 56.5292 384.536 56.7557C384.756 56.9821 384.865 57.2518 384.86 57.5647C384.856 57.8776 384.741 58.1444 384.515 58.3649C384.289 58.5408 384.019 58.6267 383.706 58.6226L366.34 58.3944L366.241 65.9043C366.237 66.2172 366.122 66.484 365.895 66.7046C365.669 66.9251 365.399 67.0334 365.086 67.0292C364.773 67.0251 364.507 66.9099 364.286 66.6834C364.11 66.4575 364.024 66.1882 364.028 65.8752L364.141 57.2925C364.145 56.9795 364.238 56.7125 364.42 56.4913C364.646 56.2708 364.916 56.1625 365.229 56.1667L383.736 56.4098ZM365.075 52.5431C364.762 52.539 364.496 52.4238 364.275 52.1973C364.099 51.9714 364.013 51.7021 364.017 51.3891C364.027 50.6739 364.389 50.321 365.104 50.3304L383.946 50.578C384.259 50.5821 384.526 50.6974 384.747 50.9238C384.968 51.1055 385.076 51.3529 385.072 51.6658C385.068 51.9787 384.953 52.2454 384.726 52.466C384.5 52.6866 384.23 52.7948 383.917 52.7907L365.075 52.5431ZM364.911 80.3728C365.224 80.3769 365.491 80.4922 365.711 80.7186C365.932 80.9004 366.041 81.1701 366.036 81.5277L365.932 89.4399L379.342 89.6161C379.655 89.6203 379.922 89.7355 380.143 89.962C380.363 90.1884 380.471 90.4581 380.467 90.771C380.463 91.0839 380.348 91.3507 380.122 91.5712C379.896 91.7471 379.626 91.833 379.313 91.8289L364.763 91.6377C364.048 91.6283 363.695 91.266 363.704 90.5508L363.823 81.4986C363.833 80.7387 364.196 80.3634 364.911 80.3728ZM383.501 89.6037C383.812 89.6972 384.033 89.9013 384.163 90.216C384.294 90.486 384.312 90.7768 384.219 91.0886L384.218 91.1556C383.987 91.6891 383.604 91.9523 383.067 91.9453C382.578 91.8047 382.245 91.5991 382.07 91.3286C381.895 91.0133 381.855 90.6775 381.949 90.321C382.179 89.7875 382.563 89.5243 383.099 89.5314C383.278 89.5337 383.412 89.5578 383.501 89.6037Z" fill="#F473F6"/>
<path d="M162.047 273.574C162.059 272.692 162.383 272.003 163.019 271.507C163.657 270.886 164.417 270.581 165.299 270.592L211.783 271.203C213.799 271.23 214.793 272.251 214.767 274.266C214.755 275.148 214.43 275.9 213.792 276.521C213.28 277.145 212.583 277.45 211.701 277.439L165.217 276.828C164.335 276.817 163.584 276.492 162.962 275.854C162.341 275.215 162.036 274.455 162.047 273.574ZM148.049 260.16C146.034 260.134 145.039 259.113 145.065 257.097L146.503 147.69C146.53 145.675 147.551 144.68 149.566 144.707C151.708 144.735 152.765 145.757 152.739 147.772L151.343 253.967L201.606 254.627C202.614 254.641 203.366 254.965 203.861 255.602C204.483 256.24 204.788 257 204.776 257.882C204.75 259.897 203.666 260.891 201.524 260.863L148.049 260.16ZM163.286 164.92C163.312 162.905 164.333 161.91 166.349 161.936C167.231 161.948 167.982 162.273 168.604 162.911C169.227 163.423 169.533 164.12 169.521 165.002L168.506 242.286C168.494 243.168 168.17 243.919 167.531 244.541C166.895 245.037 166.136 245.279 165.254 245.267C163.238 245.241 162.244 244.22 162.27 242.204L163.286 164.92ZM212.101 261.38C210.72 260.984 209.784 260.341 209.291 259.453C208.799 258.565 208.685 257.681 208.948 256.803L208.951 256.614C209.601 255.11 210.681 254.369 212.193 254.388C212.445 254.392 212.633 254.457 212.757 254.585C212.883 254.586 213.072 254.589 213.324 254.592C214.329 254.857 215.014 255.433 215.38 256.32C215.747 257.207 215.735 258.089 215.346 258.966L215.343 259.155C214.945 260.661 213.865 261.403 212.101 261.38ZM239.587 278.939C237.077 278.15 236.151 276.752 236.807 274.745L284.932 150.454C285.58 149.077 286.597 148.397 287.983 148.415L290.628 148.45C292.014 148.468 293.013 149.174 293.624 150.568L315.209 219.456C315.449 220.341 315.376 221.159 314.988 221.91C314.6 222.661 313.963 223.156 313.078 223.397C312.826 223.393 312.637 223.454 312.509 223.578C312.509 223.578 312.383 223.576 312.131 223.573C310.745 223.555 309.747 222.786 309.137 221.266L289.002 157.122L242.635 277.089C241.989 278.341 240.973 278.957 239.587 278.939ZM346.537 280.344C345.152 280.326 344.152 279.683 343.539 278.415L328.963 237.024L287.015 236.472C286.007 236.459 285.192 236.134 284.571 235.495C284.075 234.859 283.833 234.1 283.845 233.218C283.871 231.202 284.955 230.209 287.097 230.237L331.313 230.818C332.573 230.834 333.51 231.414 334.125 232.556L349.426 276.225C350.03 278.248 349.383 279.563 347.485 280.168L346.537 280.344ZM260.882 269.202C258.372 268.414 257.446 267.015 258.102 265.008L285.385 187.88C286.159 186.505 287.176 185.825 288.436 185.842C288.688 185.845 288.876 185.91 289 186.038C289.126 186.04 289.252 186.041 289.378 186.043C290.257 186.306 290.879 186.882 291.245 187.768C291.613 188.529 291.667 189.286 291.405 190.038L263.933 267.164C263.284 268.541 262.268 269.221 260.882 269.202ZM326.453 269.875C324.941 269.855 324.006 269.15 323.646 267.759L319.108 253.525L281.505 253.031C280.624 253.02 279.872 252.695 279.25 252.057C278.755 251.42 278.513 250.661 278.524 249.779C278.551 247.764 279.572 246.769 281.587 246.796L321.458 247.319C322.843 247.338 323.842 248.044 324.454 249.438L329.528 265.947C329.77 266.706 329.697 267.461 329.31 268.212C328.922 268.963 328.285 269.458 327.4 269.698L326.453 269.875ZM326.494 223.573C325.109 223.555 324.11 222.849 323.498 221.455L305.365 163.196C304.761 161.172 305.409 159.858 307.306 159.253C307.56 159.13 307.876 159.071 308.254 159.076C309.765 159.096 310.764 159.802 311.25 161.194L329.572 219.455C329.813 220.341 329.739 221.159 329.351 221.909C328.963 222.66 328.327 223.156 327.442 223.396L326.494 223.573ZM257.344 279.55C255.963 279.154 255.026 278.575 254.532 277.813C254.04 276.924 253.926 275.978 254.191 274.973C254.843 273.344 255.924 272.539 257.436 272.559C257.688 272.562 257.876 272.628 258 272.755C258.126 272.757 258.315 272.76 258.567 272.763C259.444 273.152 260.066 273.791 260.432 274.677C260.8 275.438 260.852 276.258 260.589 277.136L260.586 277.325C259.936 278.829 258.856 279.57 257.344 279.55ZM372.468 213.971C372.548 207.925 373.382 201.951 374.972 196.05C376.687 190.151 379.028 184.638 381.993 179.511C385.086 174.26 388.802 169.521 393.141 165.294C397.48 161.068 402.377 157.604 407.83 154.904C408.085 154.655 408.591 154.536 409.347 154.546C410.48 154.561 411.355 155.076 411.972 156.092C412.464 156.981 412.516 157.863 412.126 158.74C411.864 159.493 411.353 160.053 410.592 160.421C405.645 163.002 401.193 166.219 397.236 170.073C393.281 173.801 389.95 178.041 387.241 182.793C384.535 187.419 382.453 192.432 380.996 197.83C379.541 203.103 378.777 208.511 378.704 214.053C378.603 221.738 379.827 229.25 382.377 236.591C385.054 243.808 388.749 250.22 393.464 255.825C398.304 261.433 404.04 265.981 410.671 269.47C417.431 272.834 424.842 274.57 432.904 274.676C440.966 274.781 448.357 273.241 455.077 270.053C461.798 266.74 467.588 262.343 472.448 256.863C477.435 251.259 481.299 244.884 484.039 237.738C486.905 230.594 488.388 223.18 488.489 215.496C488.587 208.063 487.421 200.866 484.993 193.905C482.566 186.817 479.121 180.535 474.657 175.059C470.195 169.457 464.775 164.85 458.396 161.238C452.144 157.628 445.179 155.521 437.501 154.916L437.325 168.332C437.299 170.347 436.278 171.342 434.262 171.315C428.467 171.239 423.161 172.366 418.342 174.697C413.524 177.028 409.388 180.186 405.933 184.173C402.605 188.161 399.962 192.725 398.005 197.865C396.173 203.006 395.221 208.349 395.148 213.891C395.077 219.308 395.89 224.611 397.585 229.799C399.407 234.988 401.992 239.621 405.34 243.697C408.689 247.773 412.678 251.038 417.307 253.493C422.063 255.949 427.338 257.215 433.132 257.291C438.927 257.368 444.234 256.24 449.052 253.91C453.87 251.579 458.006 248.484 461.458 244.623C464.913 240.637 467.556 236.073 469.387 230.931C471.344 225.791 472.36 220.45 472.432 214.907C472.552 205.837 470.454 197.683 466.139 190.444C461.95 183.208 456.161 177.903 448.772 174.53C448.02 174.268 447.459 173.757 447.091 172.996C446.851 172.111 446.925 171.293 447.313 170.542C447.707 169.287 448.66 168.67 450.172 168.69C450.676 168.696 451.053 168.764 451.303 168.893C455.561 170.839 459.37 173.409 462.73 176.603C466.092 179.671 468.943 183.236 471.283 187.299C473.751 191.237 475.585 195.545 476.783 200.223C478.108 204.902 478.736 209.824 478.668 214.989C478.584 221.413 477.369 227.571 475.023 233.462C472.804 239.355 469.712 244.543 465.747 249.026C461.783 253.51 457.011 257.101 451.432 259.8C445.854 262.372 439.727 263.615 433.05 263.527C426.374 263.439 420.282 261.973 414.776 259.129C409.396 256.287 404.72 252.571 400.748 247.983C396.903 243.397 393.948 238.129 391.884 232.181C389.821 226.232 388.83 220.108 388.913 213.809C388.992 207.763 390.014 201.917 391.978 196.274C394.07 190.505 396.971 185.441 400.682 181.08C404.395 176.593 408.79 172.934 413.867 170.102C419.072 167.147 424.826 165.522 431.129 165.226L431.308 151.622C431.334 149.606 432.418 148.612 434.56 148.64C443.504 148.758 451.667 150.755 459.05 154.632C466.434 158.383 472.794 163.38 478.13 169.624C483.467 175.742 487.596 182.789 490.515 190.765C493.434 198.741 494.837 207.012 494.725 215.578C494.612 224.144 492.991 232.438 489.862 240.461C486.734 248.357 482.421 255.356 476.924 261.458C471.427 267.433 464.876 272.198 457.27 275.752C449.789 279.307 441.64 281.027 432.822 280.911C423.878 280.794 415.651 278.859 408.14 275.106C400.756 271.355 394.395 266.421 389.058 260.303C383.722 254.059 379.595 246.949 376.676 238.973C373.758 230.872 372.356 222.537 372.468 213.971ZM415.987 152.554C416.385 151.047 417.466 150.306 419.229 150.329C419.733 150.335 420.11 150.403 420.361 150.533C421.239 150.796 421.862 151.371 422.228 152.258C422.594 153.145 422.646 154.028 422.382 154.906C421.731 156.535 420.649 157.34 419.138 157.32C417.633 156.797 416.633 156.153 416.139 155.391C415.647 154.503 415.595 153.62 415.985 152.743L415.987 152.554Z" fill="#F473F6"/>
</svg>
