<svg width="650" height="376" viewBox="0 0 650 376" fill="none" xmlns="http://www.w3.org/2000/svg">
<rect x="325" y="42.6871" width="176.761" height="176.761" transform="rotate(45 325 42.6871)" stroke="#F473F6" stroke-width="15"/>
<path d="M334.177 84.0888L328.521 78.432L317.207 89.7457L322.864 95.4025L334.177 84.0888ZM402.73 163.956L408.387 169.613L414.044 163.956L408.387 158.299L402.73 163.956ZM316.072 250.898L321.729 256.555L333.043 245.242L327.386 239.585L316.072 250.898ZM247.654 171.166L241.997 165.509L236.34 171.166L241.997 176.823L247.654 171.166ZM348.548 218.138L342.891 223.795L348.548 229.452L354.205 223.795L348.548 218.138ZM301.8 117.019L307.457 111.362L301.8 105.705L296.144 111.362L301.8 117.019ZM322.864 95.4025L397.074 169.613L408.387 158.299L334.177 84.0888L322.864 95.4025ZM327.386 239.585L253.31 165.509L241.997 176.823L316.072 250.898L327.386 239.585ZM397.074 158.299L342.891 212.481L354.205 223.795L408.387 169.613L397.074 158.299ZM354.205 212.481L294.542 152.819L283.228 164.132L342.891 223.795L354.205 212.481ZM253.31 176.823L307.457 122.676L296.144 111.362L241.997 165.509L253.31 176.823ZM296.144 122.676L355.672 182.204L366.985 170.89L307.457 111.362L296.144 122.676Z" fill="#F473F6"/>
<path d="M243.637 333.314V327.523H246.939C247.426 327.523 247.895 327.559 248.346 327.631C248.797 327.703 249.194 327.847 249.537 328.064C249.88 328.262 250.15 328.551 250.349 328.93C250.565 329.309 250.674 329.805 250.674 330.418C250.674 331.032 250.565 331.528 250.349 331.907C250.15 332.286 249.88 332.584 249.537 332.8C249.194 332.999 248.797 333.134 248.346 333.206C247.895 333.278 247.426 333.314 246.939 333.314H243.637ZM239.388 324.221V343.545H243.637V336.616H248.103C249.312 336.616 250.34 336.445 251.188 336.102C252.036 335.741 252.722 335.272 253.245 334.695C253.786 334.117 254.174 333.459 254.409 332.719C254.661 331.961 254.788 331.194 254.788 330.418C254.788 329.625 254.661 328.858 254.409 328.118C254.174 327.378 253.786 326.72 253.245 326.142C252.722 325.565 252.036 325.105 251.188 324.762C250.34 324.401 249.312 324.221 248.103 324.221H239.388ZM257.927 331.88H261.607C261.607 331.375 261.653 330.869 261.743 330.364C261.851 329.841 262.022 329.372 262.257 328.957C262.492 328.524 262.798 328.181 263.177 327.928C263.574 327.658 264.052 327.523 264.612 327.523C265.442 327.523 266.118 327.784 266.641 328.307C267.183 328.813 267.453 329.525 267.453 330.445C267.453 331.023 267.318 331.537 267.047 331.988C266.795 332.439 266.47 332.845 266.073 333.206C265.694 333.567 265.27 333.901 264.801 334.207C264.332 334.496 263.89 334.785 263.475 335.073C262.663 335.633 261.887 336.183 261.147 336.724C260.426 337.266 259.794 337.861 259.253 338.511C258.712 339.142 258.279 339.864 257.954 340.676C257.647 341.488 257.494 342.444 257.494 343.545H271.405V340.243H262.446C262.916 339.593 263.457 339.025 264.07 338.538C264.684 338.051 265.315 337.599 265.965 337.184C266.614 336.751 267.255 336.318 267.886 335.885C268.536 335.452 269.113 334.974 269.619 334.451C270.124 333.91 270.53 333.296 270.836 332.611C271.143 331.925 271.296 331.104 271.296 330.148C271.296 329.228 271.116 328.398 270.755 327.658C270.412 326.918 269.943 326.296 269.348 325.79C268.752 325.285 268.058 324.897 267.264 324.627C266.488 324.356 265.667 324.221 264.801 324.221C263.664 324.221 262.654 324.419 261.77 324.816C260.904 325.195 260.182 325.736 259.605 326.44C259.027 327.126 258.594 327.937 258.306 328.876C258.017 329.796 257.891 330.797 257.927 331.88ZM279.434 333.314V327.523H282.736C283.223 327.523 283.692 327.559 284.143 327.631C284.594 327.703 284.991 327.847 285.334 328.064C285.677 328.262 285.947 328.551 286.146 328.93C286.362 329.309 286.47 329.805 286.47 330.418C286.47 331.032 286.362 331.528 286.146 331.907C285.947 332.286 285.677 332.584 285.334 332.8C284.991 332.999 284.594 333.134 284.143 333.206C283.692 333.278 283.223 333.314 282.736 333.314H279.434ZM275.185 324.221V343.545H279.434V336.616H283.899C285.108 336.616 286.137 336.445 286.985 336.102C287.833 335.741 288.518 335.272 289.042 334.695C289.583 334.117 289.971 333.459 290.205 332.719C290.458 331.961 290.584 331.194 290.584 330.418C290.584 329.625 290.458 328.858 290.205 328.118C289.971 327.378 289.583 326.72 289.042 326.142C288.518 325.565 287.833 325.105 286.985 324.762C286.137 324.401 285.108 324.221 283.899 324.221H275.185ZM310.133 330.716H314.247C314.121 329.597 313.814 328.605 313.327 327.739C312.839 326.873 312.217 326.151 311.459 325.574C310.719 324.978 309.871 324.527 308.915 324.221C307.977 323.914 306.976 323.761 305.911 323.761C304.432 323.761 303.096 324.022 301.906 324.545C300.733 325.069 299.74 325.79 298.928 326.711C298.117 327.631 297.494 328.713 297.061 329.958C296.628 331.185 296.411 332.52 296.411 333.964C296.411 335.371 296.628 336.688 297.061 337.915C297.494 339.124 298.117 340.18 298.928 341.082C299.74 341.984 300.733 342.697 301.906 343.22C303.096 343.725 304.432 343.978 305.911 343.978C307.102 343.978 308.193 343.797 309.186 343.436C310.178 343.075 311.044 342.552 311.784 341.867C312.524 341.181 313.119 340.351 313.57 339.377C314.021 338.402 314.301 337.311 314.409 336.102H310.295C310.133 337.401 309.682 338.447 308.942 339.241C308.221 340.035 307.21 340.432 305.911 340.432C304.955 340.432 304.143 340.252 303.475 339.891C302.808 339.512 302.266 339.016 301.851 338.402C301.436 337.789 301.13 337.103 300.931 336.345C300.751 335.57 300.661 334.776 300.661 333.964C300.661 333.116 300.751 332.295 300.931 331.501C301.13 330.707 301.436 330.003 301.851 329.39C302.266 328.758 302.808 328.262 303.475 327.901C304.143 327.523 304.955 327.333 305.911 327.333C306.434 327.333 306.93 327.423 307.4 327.604C307.887 327.766 308.32 328.001 308.699 328.307C309.078 328.614 309.393 328.975 309.646 329.39C309.899 329.787 310.061 330.229 310.133 330.716ZM321.912 336.075L324.429 328.984H324.483L326.919 336.075H321.912ZM322.318 324.221L315.01 343.545H319.286L320.802 339.241H328.028L329.49 343.545H333.901L326.675 324.221H322.318ZM340.899 333.314V327.523H344.201C344.688 327.523 345.157 327.559 345.608 327.631C346.059 327.703 346.456 327.847 346.799 328.064C347.142 328.262 347.413 328.551 347.611 328.93C347.828 329.309 347.936 329.805 347.936 330.418C347.936 331.032 347.828 331.528 347.611 331.907C347.413 332.286 347.142 332.584 346.799 332.8C346.456 332.999 346.059 333.134 345.608 333.206C345.157 333.278 344.688 333.314 344.201 333.314H340.899ZM336.65 324.221V343.545H340.899V336.616H345.365C346.574 336.616 347.602 336.445 348.45 336.102C349.298 335.741 349.984 335.272 350.507 334.695C351.048 334.117 351.436 333.459 351.671 332.719C351.923 331.961 352.05 331.194 352.05 330.418C352.05 329.625 351.923 328.858 351.671 328.118C351.436 327.378 351.048 326.72 350.507 326.142C349.984 325.565 349.298 325.105 348.45 324.762C347.602 324.401 346.574 324.221 345.365 324.221H336.65ZM355.514 324.221V343.545H359.763V324.221H355.514ZM368.042 327.793V343.545H372.291V327.793H378.083V324.221H362.251V327.793H368.042ZM384.642 336.075L387.159 328.984H387.213L389.648 336.075H384.642ZM385.048 324.221L377.74 343.545H382.016L383.532 339.241H390.758L392.22 343.545H396.631L389.405 324.221H385.048ZM399.38 324.221V343.545H413.047V339.972H403.629V324.221H399.38Z" fill="#F473F6"/>
</svg>
